<svg width="473" height="567" viewBox="0 0 473 567" fill="none" xmlns="http://www.w3.org/2000/svg">
<path fill-rule="evenodd" clip-rule="evenodd" d="M405.529 304.003C403.376 285.088 406.162 245.552 406.349 243.15C407.529 227.965 400.414 168.002 386.964 173.527C364.402 155.666 334.351 151.722 306.251 149.838C247.884 145.924 185.791 154.909 140.721 194.189C118.432 214.588 96.7328 244.257 98.477 275.149C78.2261 304.431 49.6769 344.598 74.9086 378.831C83.4854 389.768 97.1166 393.841 107.891 402.124C129.563 419.604 143.159 444.69 165.037 462.066C222.997 514.149 321.414 525.029 378.36 465.789C422.395 422.885 415.275 358.699 407.529 304.003C402.322 267.23 409.729 340.904 405.529 304.003Z" fill="white"/>
<path fill-rule="evenodd" clip-rule="evenodd" d="M228.28 69.6251C243.89 66.4751 259.919 64.5151 275.86 65.1051L277.089 65.1528C289.083 65.6322 304.273 66.6926 314.736 73.6671C315.338 73.0631 316.306 72.7531 317.184 73.1721C329.618 79.1071 343.294 83.3981 356.386 87.6621C369.418 91.9051 382.938 94.7061 396.597 95.8351C401.736 96.2601 406.134 101.809 402.88 106.786C402.106 107.972 401.352 109.17 400.601 110.371C401.857 110.24 403.113 110.105 404.369 109.978C408.502 109.562 412.631 113.973 412.386 117.997C412.233 120.528 411.96 123.029 411.556 125.5C413.13 125.467 414.695 125.703 416.207 126.342C423.863 129.575 423.33 138.694 422.757 145.632C421.963 155.26 418.362 165.458 411.676 172.664C416.668 177.849 420.202 184.041 422.31 191.395C423.839 196.765 424.69 202.485 424.27 208.075L424.136 209.749C423.617 215.815 422.584 222.531 418.22 226.895C415.98 229.145 413.22 229.965 410.589 229.705C412.18 243.685 413.2 257.745 414.16 271.755L414.61 278.451C416.752 310.831 418.361 343.422 417.94 375.855C417.549 406.165 411.56 435.585 392.97 460.195C376.039 482.605 351.73 499.125 324.23 505.405C309.41 508.795 294.28 509.035 279.28 506.875C272.009 505.825 264.69 504.215 257.789 501.675C250.15 498.855 244.66 494.705 239.52 488.485C237.089 485.535 238.259 479.255 243.1 479.845C250.421 480.733 257.105 481.803 264.124 483.968L265.129 484.285C272.12 486.525 279.36 488.195 286.669 488.905C301.64 490.355 316.839 488.895 331.18 484.355C354.53 476.955 374.64 460.465 387.53 439.745C402.83 415.185 404.56 387.305 404.339 359.065C404.102 328.077 403.094 297.07 401.449 266.114L401.169 260.955C400.299 245.025 399.459 229.085 398.72 213.145C398.49 208.145 398.14 203.105 397.509 198.115C391.74 194.735 386.57 190.075 383.2 184.325C376.43 187.125 369.31 189.145 362.759 190.755C347.585 194.487 331.831 195.393 316.386 193.056C312.22 194.777 307.971 196.29 303.657 197.592C302.491 198.109 301.325 198.617 300.16 199.115C289.759 203.565 279.209 207.335 268.23 210.095L265.533 210.768C259.755 212.192 253.479 213.595 247.33 214.035C246.32 214.425 245.23 214.755 244.039 215.045C238.44 216.405 232.629 216.835 226.89 216.355C221.299 215.885 217.259 210.235 220.339 204.945C222.589 201.085 224.86 197.235 227.15 193.395C219.18 196.715 210.95 199.475 202.65 201.815C194.27 204.175 185.77 206.165 177.259 207.995C172.709 208.965 168.14 209.825 163.6 210.795C160.35 211.485 155.36 211.845 152.709 213.985C149.78 216.335 148.95 221.815 147.839 225.195C146.379 229.585 145.009 233.995 143.759 238.455C141.27 247.355 139.23 256.385 137.65 265.505C136.07 274.635 135.009 283.855 134.419 293.105C133.83 302.345 134.089 311.645 133.14 320.845C132.629 325.725 127.39 328.235 123.52 324.825C123.066 324.425 122.608 324.021 122.155 323.612L121.48 322.995C118.169 319.995 114.959 316.815 112.31 313.235C111.83 312.575 111.37 311.885 110.94 311.185C110.87 311.185 110.81 311.165 110.74 311.115L110.005 310.562C101.918 304.543 88.4061 296.694 80.52 306.695C78.007 309.881 76.7204 313.938 75.6526 317.851L73.7789 324.856C72.5669 329.428 71.4263 334.026 70.759 338.705C69.249 349.185 70.009 361.265 77.22 369.665C80.1 373.025 84.07 375.425 88.499 376.055C90.97 376.395 93.41 375.975 95.86 375.665C98.35 375.355 100.749 375.855 103.24 375.615C107.2 375.225 108.93 379.965 107.45 382.945C106.65 384.545 105.709 385.925 104.64 387.095C105.499 387.835 106.32 388.635 107.11 389.475C109.45 390.225 111.549 391.835 113.12 393.965C114.39 395.685 115.049 397.555 115.16 399.525C115.299 400.015 115.419 400.515 115.53 401.025L117.675 404.507C118.147 405.271 118.617 406.025 119.089 406.765C124.549 415.365 130.61 422.645 138.14 429.505C145.39 436.105 153.259 442.015 160.07 449.095L160.872 449.936C167.222 456.627 173.915 464.726 171.43 474.455C170.79 476.955 167.299 478.755 165.02 477.065C157.69 471.625 153.999 463.005 147.78 456.405C141.379 449.605 134.289 443.495 127.87 436.715C121.799 430.315 117.009 423.065 113.4 415.085C111.959 416.675 109.86 417.805 106.95 418.245C101.95 418.995 97.289 416.065 95.11 411.735C93.709 412.355 92.28 412.915 90.839 413.355C83.259 415.675 78.49 407.245 81.35 401.015C82.879 397.675 84.789 394.775 87.16 392.335C79.749 391.315 72.209 387.485 67.339 382.705C55.12 370.695 53.44 352.645 56.19 336.595C57.65 328.085 60.169 319.475 63.44 311.485C64.009 310.095 64.62 308.695 65.289 307.315C64.919 307.305 64.539 307.145 64.299 306.835C62.089 303.815 59.4 301.345 57.759 297.965C56.249 294.865 54.57 291.725 53.379 288.495C50.93 281.885 49.73 274.425 48.93 267.435C47.28 253.125 47.919 238.905 50.11 224.685C53.839 200.465 62.847 177.287 76.118 156.949C75.3954 156.569 74.703 156.111 74.0577 155.569L73.739 155.291L73.221 154.823C69.434 151.396 69.761 144.973 73.221 141.502L74.3138 140.407C75.6975 139.032 76.8908 137.943 79.126 136.446C79.456 136.225 79.793 136.017 80.134 135.823C78.964 133.661 78.558 131.133 79.373 128.344C82.213 118.628 96.193 118.972 105.054 123.209C114.857 114.46 125.727 106.865 137.509 100.715C165.57 86.0751 197.299 75.8651 228.28 69.6251ZM83.2303 325.525C88.4703 323.815 95.4303 327.405 100.14 329.565C106.11 332.305 111.19 336.355 116.11 340.635C118.56 342.775 118.999 346.275 118.39 349.265C118.329 349.565 118.27 349.875 118.199 350.185C117.549 353.375 113.989 355.885 110.839 355.795C104.249 355.615 101.11 349.925 97.3793 345.105C96.9403 345.885 96.3903 346.605 95.7093 347.145L95.2494 347.505C93.7014 348.684 91.9948 349.626 89.9493 349.535C88.4993 349.465 87.1103 349.095 85.8293 348.425C82.6293 346.735 81.2203 342.595 82.0893 339.225C82.6293 337.105 83.8693 335.445 85.4893 334.295L84.8854 333.882C83.5934 332.983 82.4149 332.035 81.4965 330.636L81.2893 330.305H81.3693C80.3693 328.585 81.0203 326.245 83.2303 325.525Z" fill="black"/>
<path fill-rule="evenodd" clip-rule="evenodd" d="M246.281 396.29C258.527 382.06 279.152 381.069 296.237 384.627C307.201 386.911 317.876 390.715 329.012 392.125C334.213 392.784 339.47 392.981 344.709 392.884C349.855 392.789 355.009 391.752 360.137 391.945C360.925 391.974 361.223 393.009 360.54 393.43C353.505 397.751 344.028 399.137 335.718 399.982C335.744 400.597 335.781 401.197 335.866 401.706C336.093 403.063 336.3 404.411 336.467 405.777C336.844 408.858 337.266 411.929 337.687 415.004C338.517 421.056 338.778 427.298 340.237 433.245L340.492 434.234C340.83 435.484 340.907 436.611 340.794 437.627L341.132 437.474L342.199 436.957L342.899 436.626C345.453 435.442 347.89 434.58 350.893 434.868C353.179 435.086 355.098 436.645 355.112 439.086C355.169 450.041 340.405 453.564 331.96 455.661L329.483 456.271C318.734 458.893 307.758 461.191 296.703 461.741C278.961 462.622 259.024 457.728 247.418 443.337C236.589 429.91 234.604 409.858 246.281 396.29ZM326.852 442.318C324.99 425.824 304.722 424.917 298.891 435.377C296.304 420.798 258.028 434.117 261.021 437.015C272.365 448.001 289.58 448.99 304.379 446.958C311.916 445.923 319.459 444.238 326.852 442.318ZM304.358 399.088L299.262 398.355L297.255 398.078C284.623 396.387 270.416 395.513 260.03 403.612C256.238 406.568 254.104 410.424 253.307 414.566C263.134 413.109 272.998 411.998 282.891 411.073L285.59 410.825C291.78 410.267 297.967 409.679 304.151 409.062L308.546 408.617L312.939 408.161C314.485 407.999 324.904 407.466 326.863 407.824C327.072 406.064 327.345 402.255 327.787 400.542C320.385 400.793 313.015 400.243 305.656 399.265L304.358 399.088ZM327.814 325.367C335.366 329.957 346.872 340.66 338.748 352.04C329.186 362.073 315.419 350.569 308.634 345.366C302.343 341.334 295.275 351.705 301.112 356.413C350.136 392.708 370.031 326.567 331.634 319.97C327.406 319.243 325.836 323.947 327.814 325.367ZM341.328 344.704L341.691 344.507L341.814 344.432C342.026 344.295 341.891 344.31 341.408 344.477L341.046 344.607V344.863C341.139 344.806 341.238 344.763 341.328 344.704ZM244.617 303.924L244.616 303.699C244.63 297.322 248.344 282.762 257.524 282.762C263.259 282.762 266.741 292.671 267.344 302.886L267.365 303.302C267.631 309.653 265.888 323.534 257.524 323.534C249.072 323.534 244.704 310.387 244.617 303.924V303.924ZM379.773 301.924L379.774 301.699C379.76 295.322 376.046 280.762 366.866 280.762C361.274 280.762 357.824 290.182 357.097 300.12L357.046 300.886C356.684 307.022 358.314 321.534 366.866 321.534C375.318 321.534 379.686 308.387 379.773 301.924V301.924ZM249.855 239.285C257.347 238.146 267.268 240.31 270.761 247.928C272.317 251.322 270.474 255.075 266.551 255.263C257.07 255.717 248.567 253.607 240.245 259.772C236.664 262.425 233.653 266.1 231.126 269.764L230.17 271.159L229.378 272.308C227.662 274.831 226.037 277.571 226.291 280.615C226.366 281.516 225.445 282.371 224.57 282.335C219.116 282.111 218.529 275.273 219.246 271.166C220.58 263.544 224.269 256.389 229.382 250.626C234.752 244.574 241.841 240.504 249.855 239.285ZM353.044 248.535C358.21 245.214 364.818 243.938 370.87 244.427C382.803 245.388 402.822 255.532 400.187 270.107C399.374 274.602 393.122 276.974 389.438 274.48C385.477 271.799 384.513 267.632 381.565 264.128C379.213 261.329 376.232 259.304 373.04 257.579C369.894 255.878 366.254 254.847 362.684 254.471L362.089 254.414C359.94 254.231 349.088 254.28 350.681 258.331C350.993 259.124 349.813 259.752 349.271 259.152C345.944 255.472 349.712 250.677 353.044 248.535Z" fill="black"/>
</svg>
