<?xml version="1.0" standalone="no"?>
<!DOCTYPE svg PUBLIC "-//W3C//DTD SVG 20010904//EN"
 "http://www.w3.org/TR/2001/REC-SVG-20010904/DTD/svg10.dtd">
<svg version="1.0" xmlns="http://www.w3.org/2000/svg"
 width="2000.000000pt" height="2000.000000pt" viewBox="0 0 2000.000000 2000.000000"
 preserveAspectRatio="xMidYMid meet">
<metadata>
Created by potrace 1.14, written by Peter Selinger 2001-2017
</metadata>
<g transform="translate(0.000000,2000.000000) scale(0.100000,-0.100000)"
fill="#000000" stroke="none">
<path d="M0 10000 l0 -10000 10000 0 10000 0 0 10000 0 10000 -10000 0 -10000
0 0 -10000z m10375 7490 c1312 -69 2531 -456 3637 -1152 992 -625 1857 -1521
2464 -2553 119 -204 334 -631 427 -850 679 -1602 781 -3380 292 -5055 -391
-1338 -1183 -2580 -2240 -3509 -703 -618 -1513 -1099 -2390 -1420 -1489 -545
-3144 -596 -4685 -146 -1338 391 -2580 1183 -3509 2240 -618 703 -1099 1513
-1420 2390 -466 1274 -573 2681 -306 4034 450 2281 1962 4242 4063 5272 1126
551 2416 815 3667 749z"/>
<path d="M7905 13494 c-227 -32 -358 -71 -530 -154 -380 -184 -660 -505 -795
-907 -129 -388 -100 -811 81 -1176 216 -435 603 -733 1092 -839 86 -19 133
-22 302 -22 170 0 216 3 305 23 324 70 554 194 785 426 236 235 368 476 437
795 19 89 22 135 22 305 0 169 -3 216 -22 301 -69 319 -205 568 -431 795 -226
225 -481 364 -789 429 -94 20 -380 35 -457 24z"/>
<path d="M10390 10000 l0 -3500 613 0 c343 0 651 5 702 10 529 59 992 307
1333 715 248 296 409 675 451 1067 8 66 11 918 11 2653 l0 2555 -1555 0 -1555
0 0 -3500z"/>
<path d="M6500 8998 c0 -344 5 -652 10 -703 42 -373 182 -723 409 -1020 68
-90 246 -269 336 -340 304 -238 660 -383 1037 -424 58 -7 345 -11 708 -11
l610 0 0 1555 0 1555 -1555 0 -1555 0 0 -612z"/>
</g>
</svg>
