<?xml version="1.0" standalone="no"?>
<!DOCTYPE svg PUBLIC "-//W3C//DTD SVG 20010904//EN"
 "http://www.w3.org/TR/2001/REC-SVG-20010904/DTD/svg10.dtd">
<svg version="1.0" xmlns="http://www.w3.org/2000/svg"
 width="2000.000000pt" height="2000.000000pt" viewBox="0 0 2000.000000 2000.000000"
 preserveAspectRatio="xMidYMid meet">
<metadata>
Created by potrace 1.14, written by Peter Selinger 2001-2017
</metadata>
<g transform="translate(0.000000,2000.000000) scale(0.100000,-0.100000)"
fill="#000000" stroke="none">
<path d="M7030 14739 c-356 -41 -716 -187 -1005 -408 -90 -68 -269 -246 -340
-336 -419 -536 -543 -1218 -338 -1860 63 -198 188 -435 322 -610 68 -90 246
-269 336 -340 536 -419 1218 -543 1860 -338 135 43 345 142 462 218 858 557
1165 1652 719 2560 -306 623 -899 1039 -1588 1114 -112 13 -319 12 -428 0z"/>
<path d="M10750 9999 l0 -4750 638 4 c685 4 716 6 985 63 850 179 1582 723
2006 1489 168 304 282 644 343 1020 l23 140 2 3393 3 3392 -2000 0 -2000 0 0
-4751z"/>
<path d="M5253 8613 c4 -686 6 -717 63 -986 87 -411 257 -794 502 -1132 482
-664 1178 -1086 2007 -1216 131 -21 182 -23 783 -26 l642 -5 0 2001 0 2001
-2001 0 -2000 0 4 -637z"/>
</g>
</svg>
